<svg width="142" height="58" viewBox="0 0 142 58" fill="none" xmlns="http://www.w3.org/2000/svg">
<g filter="url(#filter0_d_2165_7186)">
<path d="M129.381 1.1915C125.783 -0.107592 121.89 -0.338938 118.158 0.470773L30.1264 19.7615C15.6896 17.4035 10.4577 2.52619 10.4577 2.52619L3.04738 4.14561C2.45812 4.42145 7.52931 27.1467 9.16316 29.6826C12.6719 35.1015 19.2966 37.1658 25.3677 38.0556C27.4034 38.3581 29.4568 38.5361 31.5192 38.6606C33.9477 38.803 36.3851 38.5894 38.76 38.0645L44.0544 36.9077L42.6616 49L53.9289 46.5353L74.0083 30.3411L130.577 17.9552C131.166 17.8306 131.738 17.6526 132.291 17.4213C134.854 16.4069 141.755 13.2749 141.996 9.38648C142.193 6.37899 134.854 3.16684 129.381 1.1915Z" fill="white"/>
</g>
<defs>
<filter id="filter0_d_2165_7186" x="0" y="0" width="142" height="58" filterUnits="userSpaceOnUse" color-interpolation-filters="sRGB">
<feFlood flood-opacity="0" result="BackgroundImageFix"/>
<feColorMatrix in="SourceAlpha" type="matrix" values="0 0 0 0 0 0 0 0 0 0 0 0 0 0 0 0 0 0 127 0" result="hardAlpha"/>
<feOffset dx="-3" dy="9"/>
<feComposite in2="hardAlpha" operator="out"/>
<feColorMatrix type="matrix" values="0 0 0 0 0 0 0 0 0 0 0 0 0 0 0 0 0 0 0.25 0"/>
<feBlend mode="normal" in2="BackgroundImageFix" result="effect1_dropShadow_2165_7186"/>
<feBlend mode="normal" in="SourceGraphic" in2="effect1_dropShadow_2165_7186" result="shape"/>
</filter>
</defs>
</svg>
